<mxfile host="app.diagrams.net" agent="Mozilla/5.0 (Windows NT 10.0; Win64; x64) AppleWebKit/537.36 (KHTML, like Gecko) Chrome/132.0.0.0 Safari/537.36" version="26.0.6">
  <diagram name="페이지-1" id="ncKg6qpNwlImYIenTTiq">
    <mxGraphModel dx="2474" dy="2008" grid="1" gridSize="10" guides="1" tooltips="1" connect="1" arrows="1" fold="1" page="1" pageScale="1" pageWidth="827" pageHeight="1169" math="0" shadow="0">
      <root>
        <mxCell id="0" />
        <mxCell id="1" parent="0" />
        <mxCell id="f1NjRMOGImZun0HoqA7X-1" value="영화" style="whiteSpace=wrap;html=1;align=center;" parent="1" vertex="1">
          <mxGeometry x="130" y="180" width="100" height="40" as="geometry" />
        </mxCell>
        <mxCell id="f1NjRMOGImZun0HoqA7X-3" value="관객수" style="whiteSpace=wrap;html=1;align=center;shape=ellipse;perimeter=ellipsePerimeter;" parent="1" vertex="1">
          <mxGeometry x="-250" y="56" width="100" height="40" as="geometry" />
        </mxCell>
        <mxCell id="f1NjRMOGImZun0HoqA7X-4" value="누적관객수" style="whiteSpace=wrap;html=1;align=center;shape=ellipse;perimeter=ellipsePerimeter;" parent="1" vertex="1">
          <mxGeometry x="-250" y="115" width="100" height="40" as="geometry" />
        </mxCell>
        <mxCell id="f1NjRMOGImZun0HoqA7X-5" value="배급과스탭" style="whiteSpace=wrap;html=1;align=center;shape=label;" parent="1" vertex="1">
          <mxGeometry x="420" y="-110" width="100" height="40" as="geometry" />
        </mxCell>
        <mxCell id="f1NjRMOGImZun0HoqA7X-7" value="한글이름&lt;span style=&quot;color: rgba(0, 0, 0, 0); font-family: monospace; font-size: 0px; text-align: start; text-wrap-mode: nowrap;&quot;&gt;%3CmxGraphModel%3E%3Croot%3E%3CmxCell%20id%3D%220%22%2F%3E%3CmxCell%20id%3D%221%22%20parent%3D%220%22%2F%3E%3CmxCell%20id%3D%222%22%20value%3D%22%EC%A0%9C%EB%AA%A9%22%20style%3D%22whiteSpace%3Dwrap%3Bhtml%3D1%3Balign%3Dcenter%3B%22%20vertex%3D%221%22%20parent%3D%221%22%3E%3CmxGeometry%20x%3D%22430%22%20y%3D%22120%22%20width%3D%22100%22%20height%3D%2240%22%20as%3D%22geometry%22%2F%3E%3C%2FmxCell%3E%3C%2Froot%3E%3C%2FmxGraphModel%3E&lt;/span&gt;&lt;span style=&quot;color: rgba(0, 0, 0, 0); font-family: monospace; font-size: 0px; text-align: start; text-wrap-mode: nowrap;&quot;&gt;%3CmxGraphModel%3E%3Croot%3E%3CmxCell%20id%3D%220%22%2F%3E%3CmxCell%20id%3D%221%22%20parent%3D%220%22%2F%3E%3CmxCell%20id%3D%222%22%20value%3D%22%EC%A0%9C%EB%AA%A9%22%20style%3D%22whiteSpace%3Dwrap%3Bhtml%3D1%3Balign%3Dcenter%3B%22%20vertex%3D%221%22%20parent%3D%221%22%3E%3CmxGeometry%20x%3D%22430%22%20y%3D%22120%22%20width%3D%22100%22%20height%3D%2240%22%20as%3D%22geometry%22%2F%3E%3C%2FmxCell%3E%3C%2Froot%3E%3C%2FmxGraphModel%3E&lt;/span&gt;" style="whiteSpace=wrap;html=1;align=center;shape=ellipse;perimeter=ellipsePerimeter;" parent="1" vertex="1">
          <mxGeometry x="-250" y="-61" width="100" height="40" as="geometry" />
        </mxCell>
        <mxCell id="f1NjRMOGImZun0HoqA7X-8" value="영어이름" style="whiteSpace=wrap;html=1;align=center;shape=ellipse;perimeter=ellipsePerimeter;" parent="1" vertex="1">
          <mxGeometry x="-250" y="-2" width="100" height="40" as="geometry" />
        </mxCell>
        <mxCell id="f1NjRMOGImZun0HoqA7X-10" value="제작국가" style="whiteSpace=wrap;html=1;align=center;shape=rhombus;perimeter=rhombusPerimeter;" parent="1" vertex="1">
          <mxGeometry x="40" y="-20" width="100" height="40" as="geometry" />
        </mxCell>
        <mxCell id="f1NjRMOGImZun0HoqA7X-11" value="등급" style="whiteSpace=wrap;html=1;align=center;" parent="1" vertex="1">
          <mxGeometry x="230" y="-110" width="100" height="40" as="geometry" />
        </mxCell>
        <mxCell id="f1NjRMOGImZun0HoqA7X-12" value="장르" style="whiteSpace=wrap;html=1;align=center;" parent="1" vertex="1">
          <mxGeometry x="480" y="380" width="100" height="40" as="geometry" />
        </mxCell>
        <mxCell id="f1NjRMOGImZun0HoqA7X-13" value="상영시간" style="whiteSpace=wrap;html=1;align=center;shape=ellipse;perimeter=ellipsePerimeter;" parent="1" vertex="1">
          <mxGeometry x="-250" y="350" width="100" height="40" as="geometry" />
        </mxCell>
        <mxCell id="f1NjRMOGImZun0HoqA7X-14" value="최초개봉일" style="whiteSpace=wrap;html=1;align=center;shape=ellipse;perimeter=ellipsePerimeter;" parent="1" vertex="1">
          <mxGeometry x="-250" y="174" width="100" height="40" as="geometry" />
        </mxCell>
        <mxCell id="f1NjRMOGImZun0HoqA7X-16" value="영화감독" style="whiteSpace=wrap;html=1;align=center;shape=rhombus;perimeter=rhombusPerimeter;" parent="1" vertex="1">
          <mxGeometry x="450" y="40" width="100" height="40" as="geometry" />
        </mxCell>
        <mxCell id="f1NjRMOGImZun0HoqA7X-17" value="출연배우" style="whiteSpace=wrap;html=1;align=center;shape=rhombus;perimeter=rhombusPerimeter;" parent="1" vertex="1">
          <mxGeometry x="470" y="130" width="100" height="40" as="geometry" />
        </mxCell>
        <mxCell id="f1NjRMOGImZun0HoqA7X-18" value="시놉시스" style="whiteSpace=wrap;html=1;align=center;shape=ellipse;perimeter=ellipsePerimeter;" parent="1" vertex="1">
          <mxGeometry x="-250" y="291" width="100" height="40" as="geometry" />
        </mxCell>
        <mxCell id="f1NjRMOGImZun0HoqA7X-19" value="전문가평점" style="whiteSpace=wrap;html=1;align=center;" parent="1" vertex="1">
          <mxGeometry x="250" y="470" width="100" height="40" as="geometry" />
        </mxCell>
        <mxCell id="f1NjRMOGImZun0HoqA7X-20" value="네티즌평점" style="whiteSpace=wrap;html=1;align=center;" parent="1" vertex="1">
          <mxGeometry y="470" width="100" height="40" as="geometry" />
        </mxCell>
        <mxCell id="f1NjRMOGImZun0HoqA7X-24" value="감독(대표작)" style="whiteSpace=wrap;html=1;align=center;" parent="1" vertex="1">
          <mxGeometry x="830" y="20" width="100" height="40" as="geometry" />
        </mxCell>
        <mxCell id="f1NjRMOGImZun0HoqA7X-33" value="Seq" style="whiteSpace=wrap;html=1;align=center;fontStyle=4;shape=ellipse;perimeter=ellipsePerimeter;" parent="1" vertex="1">
          <mxGeometry x="-250" y="-120" width="100" height="40" as="geometry" />
        </mxCell>
        <mxCell id="f1NjRMOGImZun0HoqA7X-35" value="Seq" style="ellipse;whiteSpace=wrap;html=1;align=center;fontStyle=4;" parent="1" vertex="1">
          <mxGeometry x="460" y="480" width="100" height="40" as="geometry" />
        </mxCell>
        <mxCell id="f1NjRMOGImZun0HoqA7X-39" value="Seq" style="ellipse;whiteSpace=wrap;html=1;align=center;fontStyle=4;" parent="1" vertex="1">
          <mxGeometry x="-290" y="490" width="100" height="40" as="geometry" />
        </mxCell>
        <mxCell id="f1NjRMOGImZun0HoqA7X-40" value="Seq" style="ellipse;whiteSpace=wrap;html=1;align=center;fontStyle=4;" parent="1" vertex="1">
          <mxGeometry x="-30" y="-190" width="100" height="40" as="geometry" />
        </mxCell>
        <mxCell id="f1NjRMOGImZun0HoqA7X-53" value="" style="endArrow=none;html=1;rounded=0;exitX=1;exitY=0.5;exitDx=0;exitDy=0;" parent="1" source="f1NjRMOGImZun0HoqA7X-14" target="f1NjRMOGImZun0HoqA7X-1" edge="1">
          <mxGeometry relative="1" as="geometry">
            <mxPoint x="10" y="240" as="sourcePoint" />
            <mxPoint x="20" y="230.00000000000023" as="targetPoint" />
          </mxGeometry>
        </mxCell>
        <mxCell id="f1NjRMOGImZun0HoqA7X-56" value="개봉일" style="whiteSpace=wrap;html=1;align=center;shape=ellipse;perimeter=ellipsePerimeter;" parent="1" vertex="1">
          <mxGeometry x="-250" y="233" width="100" height="40" as="geometry" />
        </mxCell>
        <mxCell id="f1NjRMOGImZun0HoqA7X-57" value="배우" style="whiteSpace=wrap;html=1;align=center;" parent="1" vertex="1">
          <mxGeometry x="614" y="130" width="100" height="40" as="geometry" />
        </mxCell>
        <mxCell id="f1NjRMOGImZun0HoqA7X-58" value="" style="endArrow=none;html=1;rounded=0;" parent="1" source="f1NjRMOGImZun0HoqA7X-1" target="4EB04HOkl_Qzjrsy5Wmq-13" edge="1">
          <mxGeometry relative="1" as="geometry">
            <mxPoint x="254" y="199.57999999999998" as="sourcePoint" />
            <mxPoint x="360" as="targetPoint" />
          </mxGeometry>
        </mxCell>
        <mxCell id="f1NjRMOGImZun0HoqA7X-59" value="" style="endArrow=none;html=1;rounded=0;" parent="1" source="f1NjRMOGImZun0HoqA7X-1" target="f1NjRMOGImZun0HoqA7X-10" edge="1">
          <mxGeometry relative="1" as="geometry">
            <mxPoint x="254" y="199.57999999999998" as="sourcePoint" />
            <mxPoint x="414" y="199.57999999999998" as="targetPoint" />
          </mxGeometry>
        </mxCell>
        <mxCell id="f1NjRMOGImZun0HoqA7X-60" value="" style="endArrow=none;html=1;rounded=0;" parent="1" source="f1NjRMOGImZun0HoqA7X-1" target="4EB04HOkl_Qzjrsy5Wmq-1" edge="1">
          <mxGeometry relative="1" as="geometry">
            <mxPoint x="254" y="199.57999999999998" as="sourcePoint" />
            <mxPoint x="414" y="199.57999999999998" as="targetPoint" />
          </mxGeometry>
        </mxCell>
        <mxCell id="f1NjRMOGImZun0HoqA7X-61" value="" style="endArrow=none;html=1;rounded=0;" parent="1" source="f1NjRMOGImZun0HoqA7X-1" target="f1NjRMOGImZun0HoqA7X-16" edge="1">
          <mxGeometry relative="1" as="geometry">
            <mxPoint x="254" y="199.57999999999998" as="sourcePoint" />
            <mxPoint x="414" y="199.57999999999998" as="targetPoint" />
          </mxGeometry>
        </mxCell>
        <mxCell id="f1NjRMOGImZun0HoqA7X-63" value="" style="endArrow=none;html=1;rounded=0;" parent="1" source="f1NjRMOGImZun0HoqA7X-1" target="f1NjRMOGImZun0HoqA7X-17" edge="1">
          <mxGeometry relative="1" as="geometry">
            <mxPoint x="254" y="199.57999999999998" as="sourcePoint" />
            <mxPoint x="414" y="199.57999999999998" as="targetPoint" />
          </mxGeometry>
        </mxCell>
        <mxCell id="f1NjRMOGImZun0HoqA7X-66" value="" style="endArrow=none;html=1;rounded=0;" parent="1" source="f1NjRMOGImZun0HoqA7X-1" target="_Z4wVBYjO5ey0b5FOWfe-2" edge="1">
          <mxGeometry relative="1" as="geometry">
            <mxPoint x="254" y="199.57999999999998" as="sourcePoint" />
            <mxPoint x="414" y="199.57999999999998" as="targetPoint" />
          </mxGeometry>
        </mxCell>
        <mxCell id="f1NjRMOGImZun0HoqA7X-70" value="" style="endArrow=none;html=1;rounded=0;" parent="1" source="f1NjRMOGImZun0HoqA7X-1" target="f1NjRMOGImZun0HoqA7X-33" edge="1">
          <mxGeometry relative="1" as="geometry">
            <mxPoint x="150" y="230" as="sourcePoint" />
            <mxPoint x="80" y="120" as="targetPoint" />
          </mxGeometry>
        </mxCell>
        <mxCell id="f1NjRMOGImZun0HoqA7X-71" value="" style="endArrow=none;html=1;rounded=0;" parent="1" source="f1NjRMOGImZun0HoqA7X-1" target="f1NjRMOGImZun0HoqA7X-7" edge="1">
          <mxGeometry relative="1" as="geometry">
            <mxPoint x="150" y="230" as="sourcePoint" />
            <mxPoint x="80" y="120" as="targetPoint" />
          </mxGeometry>
        </mxCell>
        <mxCell id="f1NjRMOGImZun0HoqA7X-72" value="" style="endArrow=none;html=1;rounded=0;" parent="1" source="f1NjRMOGImZun0HoqA7X-1" target="f1NjRMOGImZun0HoqA7X-8" edge="1">
          <mxGeometry relative="1" as="geometry">
            <mxPoint x="150" y="230" as="sourcePoint" />
            <mxPoint x="80" y="120" as="targetPoint" />
          </mxGeometry>
        </mxCell>
        <mxCell id="f1NjRMOGImZun0HoqA7X-73" value="" style="endArrow=none;html=1;rounded=0;" parent="1" source="f1NjRMOGImZun0HoqA7X-1" target="f1NjRMOGImZun0HoqA7X-3" edge="1">
          <mxGeometry relative="1" as="geometry">
            <mxPoint x="150" y="230" as="sourcePoint" />
            <mxPoint x="80" y="120" as="targetPoint" />
          </mxGeometry>
        </mxCell>
        <mxCell id="f1NjRMOGImZun0HoqA7X-74" value="" style="endArrow=none;html=1;rounded=0;" parent="1" source="f1NjRMOGImZun0HoqA7X-1" target="f1NjRMOGImZun0HoqA7X-4" edge="1">
          <mxGeometry relative="1" as="geometry">
            <mxPoint x="150" y="230" as="sourcePoint" />
            <mxPoint x="80" y="120" as="targetPoint" />
          </mxGeometry>
        </mxCell>
        <mxCell id="f1NjRMOGImZun0HoqA7X-75" value="" style="endArrow=none;html=1;rounded=0;" parent="1" source="f1NjRMOGImZun0HoqA7X-1" target="f1NjRMOGImZun0HoqA7X-56" edge="1">
          <mxGeometry relative="1" as="geometry">
            <mxPoint x="150" y="230" as="sourcePoint" />
            <mxPoint x="80" y="120" as="targetPoint" />
          </mxGeometry>
        </mxCell>
        <mxCell id="f1NjRMOGImZun0HoqA7X-76" value="" style="endArrow=none;html=1;rounded=0;" parent="1" source="f1NjRMOGImZun0HoqA7X-1" target="f1NjRMOGImZun0HoqA7X-18" edge="1">
          <mxGeometry relative="1" as="geometry">
            <mxPoint x="150" y="230" as="sourcePoint" />
            <mxPoint x="80" y="120" as="targetPoint" />
          </mxGeometry>
        </mxCell>
        <mxCell id="f1NjRMOGImZun0HoqA7X-77" value="" style="endArrow=none;html=1;rounded=0;" parent="1" source="f1NjRMOGImZun0HoqA7X-1" target="f1NjRMOGImZun0HoqA7X-13" edge="1">
          <mxGeometry relative="1" as="geometry">
            <mxPoint x="150" y="230" as="sourcePoint" />
            <mxPoint x="80" y="120" as="targetPoint" />
          </mxGeometry>
        </mxCell>
        <mxCell id="f1NjRMOGImZun0HoqA7X-78" value="나라명" style="whiteSpace=wrap;html=1;align=center;shape=ellipse;perimeter=ellipsePerimeter;" parent="1" vertex="1">
          <mxGeometry x="70" y="-190" width="100" height="40" as="geometry" />
        </mxCell>
        <mxCell id="f1NjRMOGImZun0HoqA7X-80" value="" style="endArrow=none;html=1;rounded=0;" parent="1" source="f1NjRMOGImZun0HoqA7X-82" target="f1NjRMOGImZun0HoqA7X-78" edge="1">
          <mxGeometry relative="1" as="geometry">
            <mxPoint x="220" y="-10" as="sourcePoint" />
            <mxPoint x="380" y="-10" as="targetPoint" />
          </mxGeometry>
        </mxCell>
        <mxCell id="f1NjRMOGImZun0HoqA7X-81" value="" style="endArrow=none;html=1;rounded=0;" parent="1" source="f1NjRMOGImZun0HoqA7X-82" target="f1NjRMOGImZun0HoqA7X-40" edge="1">
          <mxGeometry relative="1" as="geometry">
            <mxPoint x="220" y="-10" as="sourcePoint" />
            <mxPoint x="380" y="-10" as="targetPoint" />
          </mxGeometry>
        </mxCell>
        <mxCell id="f1NjRMOGImZun0HoqA7X-82" value="국가" style="whiteSpace=wrap;html=1;align=center;" parent="1" vertex="1">
          <mxGeometry x="-20" y="-110" width="100" height="40" as="geometry" />
        </mxCell>
        <mxCell id="f1NjRMOGImZun0HoqA7X-83" value="Seq" style="ellipse;whiteSpace=wrap;html=1;align=center;fontStyle=4;" parent="1" vertex="1">
          <mxGeometry x="-30" y="-190" width="100" height="40" as="geometry" />
        </mxCell>
        <mxCell id="f1NjRMOGImZun0HoqA7X-86" value="" style="endArrow=none;html=1;rounded=0;" parent="1" source="f1NjRMOGImZun0HoqA7X-10" target="f1NjRMOGImZun0HoqA7X-82" edge="1">
          <mxGeometry relative="1" as="geometry">
            <mxPoint x="220" y="110" as="sourcePoint" />
            <mxPoint x="380" y="110" as="targetPoint" />
          </mxGeometry>
        </mxCell>
        <mxCell id="4EB04HOkl_Qzjrsy5Wmq-1" value="시청자등급" style="whiteSpace=wrap;html=1;align=center;shape=rhombus;perimeter=rhombusPerimeter;" parent="1" vertex="1">
          <mxGeometry x="190" y="-20" width="100" height="40" as="geometry" />
        </mxCell>
        <mxCell id="4EB04HOkl_Qzjrsy5Wmq-2" value="" style="endArrow=none;html=1;rounded=0;" parent="1" source="f1NjRMOGImZun0HoqA7X-11" target="4EB04HOkl_Qzjrsy5Wmq-1" edge="1">
          <mxGeometry relative="1" as="geometry">
            <mxPoint x="199" y="190" as="sourcePoint" />
            <mxPoint x="272" y="37" as="targetPoint" />
          </mxGeometry>
        </mxCell>
        <mxCell id="4EB04HOkl_Qzjrsy5Wmq-3" value="Seq" style="ellipse;whiteSpace=wrap;html=1;align=center;fontStyle=4;" parent="1" vertex="1">
          <mxGeometry x="200" y="-190" width="100" height="40" as="geometry" />
        </mxCell>
        <mxCell id="4EB04HOkl_Qzjrsy5Wmq-4" value="연령대" style="whiteSpace=wrap;html=1;align=center;shape=ellipse;perimeter=ellipsePerimeter;" parent="1" vertex="1">
          <mxGeometry x="300" y="-190" width="100" height="40" as="geometry" />
        </mxCell>
        <mxCell id="4EB04HOkl_Qzjrsy5Wmq-5" value="Seq" style="ellipse;whiteSpace=wrap;html=1;align=center;fontStyle=4;" parent="1" vertex="1">
          <mxGeometry x="200" y="-190" width="100" height="40" as="geometry" />
        </mxCell>
        <mxCell id="4EB04HOkl_Qzjrsy5Wmq-6" value="" style="endArrow=none;html=1;rounded=0;" parent="1" source="f1NjRMOGImZun0HoqA7X-11" target="4EB04HOkl_Qzjrsy5Wmq-5" edge="1">
          <mxGeometry relative="1" as="geometry">
            <mxPoint x="280" y="-60" as="sourcePoint" />
            <mxPoint x="266" y="-8" as="targetPoint" />
          </mxGeometry>
        </mxCell>
        <mxCell id="4EB04HOkl_Qzjrsy5Wmq-7" value="" style="endArrow=none;html=1;rounded=0;" parent="1" source="f1NjRMOGImZun0HoqA7X-11" target="4EB04HOkl_Qzjrsy5Wmq-4" edge="1">
          <mxGeometry relative="1" as="geometry">
            <mxPoint x="280" y="-60" as="sourcePoint" />
            <mxPoint x="266" y="-8" as="targetPoint" />
          </mxGeometry>
        </mxCell>
        <mxCell id="4EB04HOkl_Qzjrsy5Wmq-9" value="부서" style="whiteSpace=wrap;html=1;align=center;shape=ellipse;perimeter=ellipsePerimeter;" parent="1" vertex="1">
          <mxGeometry x="520" y="-190" width="100" height="40" as="geometry" />
        </mxCell>
        <mxCell id="4EB04HOkl_Qzjrsy5Wmq-10" value="Seq" style="ellipse;whiteSpace=wrap;html=1;align=center;fontStyle=4;" parent="1" vertex="1">
          <mxGeometry x="420" y="-190" width="100" height="40" as="geometry" />
        </mxCell>
        <mxCell id="4EB04HOkl_Qzjrsy5Wmq-13" value="배급과스탭" style="whiteSpace=wrap;html=1;align=center;shape=rhombus;perimeter=rhombusPerimeter;" parent="1" vertex="1">
          <mxGeometry x="340" y="-10" width="100" height="40" as="geometry" />
        </mxCell>
        <mxCell id="4EB04HOkl_Qzjrsy5Wmq-14" value="" style="endArrow=none;html=1;rounded=0;" parent="1" source="f1NjRMOGImZun0HoqA7X-5" target="4EB04HOkl_Qzjrsy5Wmq-13" edge="1">
          <mxGeometry relative="1" as="geometry">
            <mxPoint x="213" y="190" as="sourcePoint" />
            <mxPoint x="408" y="24" as="targetPoint" />
          </mxGeometry>
        </mxCell>
        <mxCell id="4EB04HOkl_Qzjrsy5Wmq-15" value="" style="endArrow=none;html=1;rounded=0;" parent="1" source="f1NjRMOGImZun0HoqA7X-5" target="4EB04HOkl_Qzjrsy5Wmq-10" edge="1">
          <mxGeometry relative="1" as="geometry">
            <mxPoint x="308" y="-100" as="sourcePoint" />
            <mxPoint x="343" y="-141" as="targetPoint" />
          </mxGeometry>
        </mxCell>
        <mxCell id="4EB04HOkl_Qzjrsy5Wmq-17" value="" style="endArrow=none;html=1;rounded=0;" parent="1" source="f1NjRMOGImZun0HoqA7X-5" target="4EB04HOkl_Qzjrsy5Wmq-9" edge="1">
          <mxGeometry relative="1" as="geometry">
            <mxPoint x="308" y="-100" as="sourcePoint" />
            <mxPoint x="343" y="-141" as="targetPoint" />
          </mxGeometry>
        </mxCell>
        <mxCell id="4EB04HOkl_Qzjrsy5Wmq-18" value="이름" style="whiteSpace=wrap;html=1;align=center;shape=ellipse;perimeter=ellipsePerimeter;" parent="1" vertex="1">
          <mxGeometry x="620" y="-190" width="100" height="40" as="geometry" />
        </mxCell>
        <mxCell id="4EB04HOkl_Qzjrsy5Wmq-21" value="" style="endArrow=none;html=1;rounded=0;" parent="1" source="f1NjRMOGImZun0HoqA7X-5" target="4EB04HOkl_Qzjrsy5Wmq-18" edge="1">
          <mxGeometry relative="1" as="geometry">
            <mxPoint x="308" y="-100" as="sourcePoint" />
            <mxPoint x="343" y="-141" as="targetPoint" />
          </mxGeometry>
        </mxCell>
        <mxCell id="_Z4wVBYjO5ey0b5FOWfe-2" value="영화 장르" style="shape=rhombus;perimeter=rhombusPerimeter;whiteSpace=wrap;html=1;align=center;" parent="1" vertex="1">
          <mxGeometry x="320" y="290" width="120" height="60" as="geometry" />
        </mxCell>
        <mxCell id="PFazSkUr3Jf4t9IVWUDW-3" value="관람객평점" style="shape=rhombus;perimeter=rhombusPerimeter;whiteSpace=wrap;html=1;align=center;" parent="1" vertex="1">
          <mxGeometry x="10" y="340" width="120" height="60" as="geometry" />
        </mxCell>
        <mxCell id="PFazSkUr3Jf4t9IVWUDW-4" value="전문가평점" style="shape=rhombus;perimeter=rhombusPerimeter;whiteSpace=wrap;html=1;align=center;" parent="1" vertex="1">
          <mxGeometry x="210" y="350" width="120" height="60" as="geometry" />
        </mxCell>
        <mxCell id="PFazSkUr3Jf4t9IVWUDW-5" value="" style="endArrow=none;html=1;rounded=0;exitX=0.5;exitY=1;exitDx=0;exitDy=0;entryX=0.5;entryY=0;entryDx=0;entryDy=0;" parent="1" source="f1NjRMOGImZun0HoqA7X-1" target="PFazSkUr3Jf4t9IVWUDW-3" edge="1">
          <mxGeometry relative="1" as="geometry">
            <mxPoint x="159" y="230" as="sourcePoint" />
            <mxPoint x="-14" y="343" as="targetPoint" />
          </mxGeometry>
        </mxCell>
        <mxCell id="PFazSkUr3Jf4t9IVWUDW-6" value="" style="endArrow=none;html=1;rounded=0;exitX=0.5;exitY=1;exitDx=0;exitDy=0;entryX=0.5;entryY=0;entryDx=0;entryDy=0;" parent="1" source="PFazSkUr3Jf4t9IVWUDW-3" target="f1NjRMOGImZun0HoqA7X-20" edge="1">
          <mxGeometry relative="1" as="geometry">
            <mxPoint x="190" y="230" as="sourcePoint" />
            <mxPoint x="140" y="330" as="targetPoint" />
          </mxGeometry>
        </mxCell>
        <mxCell id="_Z4wVBYjO5ey0b5FOWfe-4" value="" style="endArrow=none;html=1;rounded=0;entryX=0.43;entryY=-0.05;entryDx=0;entryDy=0;entryPerimeter=0;exitX=0.5;exitY=1;exitDx=0;exitDy=0;" parent="1" source="f1NjRMOGImZun0HoqA7X-12" target="f1NjRMOGImZun0HoqA7X-35" edge="1">
          <mxGeometry relative="1" as="geometry">
            <mxPoint x="350" y="410" as="sourcePoint" />
            <mxPoint x="510" y="410" as="targetPoint" />
          </mxGeometry>
        </mxCell>
        <mxCell id="_Z4wVBYjO5ey0b5FOWfe-5" value="장르명" style="ellipse;whiteSpace=wrap;html=1;align=center;" parent="1" vertex="1">
          <mxGeometry x="560" y="480" width="100" height="40" as="geometry" />
        </mxCell>
        <mxCell id="PFazSkUr3Jf4t9IVWUDW-8" value="" style="endArrow=none;html=1;rounded=0;exitX=0.5;exitY=1;exitDx=0;exitDy=0;entryX=0.5;entryY=0;entryDx=0;entryDy=0;" parent="1" source="PFazSkUr3Jf4t9IVWUDW-4" target="f1NjRMOGImZun0HoqA7X-19" edge="1">
          <mxGeometry relative="1" as="geometry">
            <mxPoint x="190" y="230" as="sourcePoint" />
            <mxPoint x="223" y="363" as="targetPoint" />
          </mxGeometry>
        </mxCell>
        <mxCell id="_Z4wVBYjO5ey0b5FOWfe-3" value="" style="endArrow=none;html=1;rounded=0;exitX=1;exitY=1;exitDx=0;exitDy=0;entryX=0.5;entryY=0;entryDx=0;entryDy=0;" parent="1" source="_Z4wVBYjO5ey0b5FOWfe-2" target="f1NjRMOGImZun0HoqA7X-12" edge="1">
          <mxGeometry relative="1" as="geometry">
            <mxPoint x="350" y="310" as="sourcePoint" />
            <mxPoint x="510" y="310" as="targetPoint" />
          </mxGeometry>
        </mxCell>
        <mxCell id="_Z4wVBYjO5ey0b5FOWfe-6" value="" style="endArrow=none;html=1;rounded=0;entryX=0.5;entryY=0;entryDx=0;entryDy=0;exitX=0.5;exitY=1;exitDx=0;exitDy=0;" parent="1" source="f1NjRMOGImZun0HoqA7X-12" target="_Z4wVBYjO5ey0b5FOWfe-5" edge="1">
          <mxGeometry relative="1" as="geometry">
            <mxPoint x="350" y="410" as="sourcePoint" />
            <mxPoint x="510" y="410" as="targetPoint" />
          </mxGeometry>
        </mxCell>
        <mxCell id="PFazSkUr3Jf4t9IVWUDW-9" value="이름" style="whiteSpace=wrap;html=1;align=center;shape=ellipse;perimeter=ellipsePerimeter;" parent="1" vertex="1">
          <mxGeometry x="-290" y="555" width="100" height="40" as="geometry" />
        </mxCell>
        <mxCell id="PFazSkUr3Jf4t9IVWUDW-10" value="별점" style="whiteSpace=wrap;html=1;align=center;shape=ellipse;perimeter=ellipsePerimeter;" parent="1" vertex="1">
          <mxGeometry x="-290" y="620" width="100" height="40" as="geometry" />
        </mxCell>
        <mxCell id="_Z4wVBYjO5ey0b5FOWfe-7" value="영화 seq" style="ellipse;whiteSpace=wrap;html=1;align=center;" parent="1" vertex="1">
          <mxGeometry x="660" y="480" width="100" height="40" as="geometry" />
        </mxCell>
        <mxCell id="PFazSkUr3Jf4t9IVWUDW-11" value="영화번호" style="whiteSpace=wrap;html=1;align=center;shape=ellipse;perimeter=ellipsePerimeter;" parent="1" vertex="1">
          <mxGeometry x="-290" y="685" width="100" height="40" as="geometry" />
        </mxCell>
        <mxCell id="PFazSkUr3Jf4t9IVWUDW-12" value="리뷰" style="whiteSpace=wrap;html=1;align=center;shape=ellipse;perimeter=ellipsePerimeter;" parent="1" vertex="1">
          <mxGeometry x="-290" y="750" width="100" height="40" as="geometry" />
        </mxCell>
        <mxCell id="4EB04HOkl_Qzjrsy5Wmq-23" value="감독" style="whiteSpace=wrap;html=1;align=center;" parent="1" vertex="1">
          <mxGeometry x="590" y="-50" width="100" height="40" as="geometry" />
        </mxCell>
        <mxCell id="_Z4wVBYjO5ey0b5FOWfe-8" value="" style="endArrow=none;html=1;rounded=0;entryX=0.5;entryY=0;entryDx=0;entryDy=0;exitX=0.5;exitY=1;exitDx=0;exitDy=0;" parent="1" source="f1NjRMOGImZun0HoqA7X-12" target="_Z4wVBYjO5ey0b5FOWfe-7" edge="1">
          <mxGeometry relative="1" as="geometry">
            <mxPoint x="350" y="410" as="sourcePoint" />
            <mxPoint x="510" y="410" as="targetPoint" />
          </mxGeometry>
        </mxCell>
        <mxCell id="PFazSkUr3Jf4t9IVWUDW-7" value="" style="endArrow=none;html=1;rounded=0;exitX=0.5;exitY=1;exitDx=0;exitDy=0;" parent="1" source="f1NjRMOGImZun0HoqA7X-1" target="PFazSkUr3Jf4t9IVWUDW-4" edge="1">
          <mxGeometry relative="1" as="geometry">
            <mxPoint x="190" y="230" as="sourcePoint" />
            <mxPoint x="110" y="360" as="targetPoint" />
          </mxGeometry>
        </mxCell>
        <mxCell id="4EB04HOkl_Qzjrsy5Wmq-25" value="이름" style="whiteSpace=wrap;html=1;align=center;shape=ellipse;perimeter=ellipsePerimeter;" parent="1" vertex="1">
          <mxGeometry x="770" y="-90" width="100" height="40" as="geometry" />
        </mxCell>
        <mxCell id="PFazSkUr3Jf4t9IVWUDW-13" value="Seq" style="ellipse;whiteSpace=wrap;html=1;align=center;fontStyle=4;" parent="1" vertex="1">
          <mxGeometry x="120" y="490" width="100" height="40" as="geometry" />
        </mxCell>
        <mxCell id="4EB04HOkl_Qzjrsy5Wmq-26" value="Seq" style="ellipse;whiteSpace=wrap;html=1;align=center;fontStyle=4;" parent="1" vertex="1">
          <mxGeometry x="770" y="-130" width="100" height="40" as="geometry" />
        </mxCell>
        <mxCell id="4EB04HOkl_Qzjrsy5Wmq-27" value="영화" style="whiteSpace=wrap;html=1;align=center;shape=ellipse;perimeter=ellipsePerimeter;" parent="1" vertex="1">
          <mxGeometry x="770" y="-50" width="100" height="40" as="geometry" />
        </mxCell>
        <mxCell id="4EB04HOkl_Qzjrsy5Wmq-28" value="" style="endArrow=none;html=1;rounded=0;" parent="1" source="4EB04HOkl_Qzjrsy5Wmq-23" target="4EB04HOkl_Qzjrsy5Wmq-26" edge="1">
          <mxGeometry relative="1" as="geometry">
            <mxPoint x="530" y="-100" as="sourcePoint" />
            <mxPoint x="645" y="-146" as="targetPoint" />
          </mxGeometry>
        </mxCell>
        <mxCell id="PFazSkUr3Jf4t9IVWUDW-17" value="리뷰" style="whiteSpace=wrap;html=1;align=center;shape=ellipse;perimeter=ellipsePerimeter;" parent="1" vertex="1">
          <mxGeometry x="120" y="750" width="100" height="40" as="geometry" />
        </mxCell>
        <mxCell id="4EB04HOkl_Qzjrsy5Wmq-24" value="" style="endArrow=none;html=1;rounded=0;" parent="1" source="4EB04HOkl_Qzjrsy5Wmq-23" target="f1NjRMOGImZun0HoqA7X-16" edge="1">
          <mxGeometry relative="1" as="geometry">
            <mxPoint x="236" y="190" as="sourcePoint" />
            <mxPoint x="486" y="80" as="targetPoint" />
          </mxGeometry>
        </mxCell>
        <mxCell id="4EB04HOkl_Qzjrsy5Wmq-30" value="" style="endArrow=none;html=1;rounded=0;" parent="1" source="4EB04HOkl_Qzjrsy5Wmq-23" target="4EB04HOkl_Qzjrsy5Wmq-27" edge="1">
          <mxGeometry relative="1" as="geometry">
            <mxPoint x="530" y="-100" as="sourcePoint" />
            <mxPoint x="645" y="-146" as="targetPoint" />
          </mxGeometry>
        </mxCell>
        <mxCell id="4EB04HOkl_Qzjrsy5Wmq-31" value="대표작" style="whiteSpace=wrap;html=1;align=center;shape=rhombus;perimeter=rhombusPerimeter;" parent="1" vertex="1">
          <mxGeometry x="680" y="20" width="100" height="40" as="geometry" />
        </mxCell>
        <mxCell id="4EB04HOkl_Qzjrsy5Wmq-32" value="" style="endArrow=none;html=1;rounded=0;" parent="1" source="4EB04HOkl_Qzjrsy5Wmq-23" target="4EB04HOkl_Qzjrsy5Wmq-31" edge="1">
          <mxGeometry relative="1" as="geometry">
            <mxPoint x="700" y="-20" as="sourcePoint" />
            <mxPoint x="780" y="-20" as="targetPoint" />
          </mxGeometry>
        </mxCell>
        <mxCell id="PFazSkUr3Jf4t9IVWUDW-18" value="" style="endArrow=none;html=1;rounded=0;exitX=0;exitY=0.5;exitDx=0;exitDy=0;entryX=1;entryY=0.5;entryDx=0;entryDy=0;" parent="1" source="f1NjRMOGImZun0HoqA7X-20" target="f1NjRMOGImZun0HoqA7X-39" edge="1">
          <mxGeometry relative="1" as="geometry">
            <mxPoint x="210" y="530" as="sourcePoint" />
            <mxPoint x="370" y="530" as="targetPoint" />
          </mxGeometry>
        </mxCell>
        <mxCell id="4EB04HOkl_Qzjrsy5Wmq-40" value="" style="endArrow=none;html=1;rounded=0;" parent="1" source="f1NjRMOGImZun0HoqA7X-57" target="f1NjRMOGImZun0HoqA7X-17" edge="1">
          <mxGeometry relative="1" as="geometry">
            <mxPoint x="620" y="120" as="sourcePoint" />
            <mxPoint x="483" y="155" as="targetPoint" />
          </mxGeometry>
        </mxCell>
        <mxCell id="PFazSkUr3Jf4t9IVWUDW-20" value="" style="endArrow=none;html=1;rounded=0;entryX=1;entryY=0.5;entryDx=0;entryDy=0;exitX=0;exitY=0.5;exitDx=0;exitDy=0;" parent="1" source="f1NjRMOGImZun0HoqA7X-20" target="PFazSkUr3Jf4t9IVWUDW-10" edge="1">
          <mxGeometry relative="1" as="geometry">
            <mxPoint x="-30" y="470" as="sourcePoint" />
            <mxPoint x="-40" y="550" as="targetPoint" />
          </mxGeometry>
        </mxCell>
        <mxCell id="PFazSkUr3Jf4t9IVWUDW-21" value="" style="endArrow=none;html=1;rounded=0;entryX=1;entryY=0.5;entryDx=0;entryDy=0;exitX=0;exitY=0.5;exitDx=0;exitDy=0;" parent="1" source="f1NjRMOGImZun0HoqA7X-20" target="PFazSkUr3Jf4t9IVWUDW-11" edge="1">
          <mxGeometry relative="1" as="geometry">
            <mxPoint x="-20" y="480" as="sourcePoint" />
            <mxPoint x="-100" y="560" as="targetPoint" />
          </mxGeometry>
        </mxCell>
        <mxCell id="PFazSkUr3Jf4t9IVWUDW-22" value="" style="endArrow=none;html=1;rounded=0;entryX=1;entryY=0.5;entryDx=0;entryDy=0;exitX=0;exitY=0.5;exitDx=0;exitDy=0;" parent="1" source="f1NjRMOGImZun0HoqA7X-20" target="PFazSkUr3Jf4t9IVWUDW-12" edge="1">
          <mxGeometry relative="1" as="geometry">
            <mxPoint x="-20" y="480" as="sourcePoint" />
            <mxPoint x="-100" y="600" as="targetPoint" />
          </mxGeometry>
        </mxCell>
        <mxCell id="4EB04HOkl_Qzjrsy5Wmq-36" value="영화" style="whiteSpace=wrap;html=1;align=center;shape=ellipse;perimeter=ellipsePerimeter;" parent="1" vertex="1">
          <mxGeometry x="980" y="60" width="100" height="40" as="geometry" />
        </mxCell>
        <mxCell id="PFazSkUr3Jf4t9IVWUDW-19" value="" style="endArrow=none;html=1;rounded=0;exitX=0;exitY=0.5;exitDx=0;exitDy=0;entryX=1;entryY=0.5;entryDx=0;entryDy=0;" parent="1" source="f1NjRMOGImZun0HoqA7X-20" target="PFazSkUr3Jf4t9IVWUDW-9" edge="1">
          <mxGeometry relative="1" as="geometry">
            <mxPoint x="-20" y="480" as="sourcePoint" />
            <mxPoint x="-40" y="510" as="targetPoint" />
          </mxGeometry>
        </mxCell>
        <mxCell id="4EB04HOkl_Qzjrsy5Wmq-33" value="" style="endArrow=none;html=1;rounded=0;" parent="1" source="f1NjRMOGImZun0HoqA7X-24" target="4EB04HOkl_Qzjrsy5Wmq-31" edge="1">
          <mxGeometry relative="1" as="geometry">
            <mxPoint x="676" as="sourcePoint" />
            <mxPoint x="790" y="70" as="targetPoint" />
          </mxGeometry>
        </mxCell>
        <mxCell id="PFazSkUr3Jf4t9IVWUDW-27" value="" style="endArrow=none;html=1;rounded=0;entryX=1;entryY=0.5;entryDx=0;entryDy=0;exitX=0;exitY=0.5;exitDx=0;exitDy=0;" parent="1" source="f1NjRMOGImZun0HoqA7X-19" target="PFazSkUr3Jf4t9IVWUDW-17" edge="1">
          <mxGeometry relative="1" as="geometry">
            <mxPoint x="230" y="480" as="sourcePoint" />
            <mxPoint x="270" y="600" as="targetPoint" />
          </mxGeometry>
        </mxCell>
        <mxCell id="4EB04HOkl_Qzjrsy5Wmq-34" value="이름" style="whiteSpace=wrap;html=1;align=center;shape=ellipse;perimeter=ellipsePerimeter;" parent="1" vertex="1">
          <mxGeometry x="980" y="20" width="100" height="40" as="geometry" />
        </mxCell>
        <mxCell id="4EB04HOkl_Qzjrsy5Wmq-35" value="Seq" style="ellipse;whiteSpace=wrap;html=1;align=center;fontStyle=4;" parent="1" vertex="1">
          <mxGeometry x="980" y="-20" width="100" height="40" as="geometry" />
        </mxCell>
        <mxCell id="4EB04HOkl_Qzjrsy5Wmq-37" value="" style="endArrow=none;html=1;rounded=0;" parent="1" source="f1NjRMOGImZun0HoqA7X-24" target="4EB04HOkl_Qzjrsy5Wmq-35" edge="1">
          <mxGeometry relative="1" as="geometry">
            <mxPoint x="840" y="50" as="sourcePoint" />
            <mxPoint x="790" y="50" as="targetPoint" />
          </mxGeometry>
        </mxCell>
        <mxCell id="4EB04HOkl_Qzjrsy5Wmq-38" value="" style="endArrow=none;html=1;rounded=0;" parent="1" source="f1NjRMOGImZun0HoqA7X-24" target="4EB04HOkl_Qzjrsy5Wmq-34" edge="1">
          <mxGeometry relative="1" as="geometry">
            <mxPoint x="840" y="50" as="sourcePoint" />
            <mxPoint x="790" y="50" as="targetPoint" />
          </mxGeometry>
        </mxCell>
        <mxCell id="4EB04HOkl_Qzjrsy5Wmq-39" value="" style="endArrow=none;html=1;rounded=0;" parent="1" source="f1NjRMOGImZun0HoqA7X-24" target="4EB04HOkl_Qzjrsy5Wmq-36" edge="1">
          <mxGeometry relative="1" as="geometry">
            <mxPoint x="840" y="50" as="sourcePoint" />
            <mxPoint x="790" y="50" as="targetPoint" />
          </mxGeometry>
        </mxCell>
        <mxCell id="PFazSkUr3Jf4t9IVWUDW-14" value="이름" style="whiteSpace=wrap;html=1;align=center;shape=ellipse;perimeter=ellipsePerimeter;" parent="1" vertex="1">
          <mxGeometry x="120" y="555" width="100" height="40" as="geometry" />
        </mxCell>
        <mxCell id="PFazSkUr3Jf4t9IVWUDW-16" value="영화번호" style="whiteSpace=wrap;html=1;align=center;shape=ellipse;perimeter=ellipsePerimeter;" parent="1" vertex="1">
          <mxGeometry x="120" y="685" width="100" height="40" as="geometry" />
        </mxCell>
        <mxCell id="PFazSkUr3Jf4t9IVWUDW-15" value="별점" style="whiteSpace=wrap;html=1;align=center;shape=ellipse;perimeter=ellipsePerimeter;" parent="1" vertex="1">
          <mxGeometry x="120" y="620" width="100" height="40" as="geometry" />
        </mxCell>
        <mxCell id="4EB04HOkl_Qzjrsy5Wmq-29" value="" style="endArrow=none;html=1;rounded=0;" parent="1" source="4EB04HOkl_Qzjrsy5Wmq-23" target="4EB04HOkl_Qzjrsy5Wmq-25" edge="1">
          <mxGeometry relative="1" as="geometry">
            <mxPoint x="530" y="-100" as="sourcePoint" />
            <mxPoint x="645" y="-146" as="targetPoint" />
          </mxGeometry>
        </mxCell>
        <mxCell id="_Z4wVBYjO5ey0b5FOWfe-21" value="영화 seq" style="ellipse;whiteSpace=wrap;html=1;align=center;" parent="1" vertex="1">
          <mxGeometry x="590" y="-140" width="100" height="40" as="geometry" />
        </mxCell>
        <mxCell id="_Z4wVBYjO5ey0b5FOWfe-22" value="" style="endArrow=none;html=1;rounded=0;entryX=0.02;entryY=0.725;entryDx=0;entryDy=0;entryPerimeter=0;exitX=1;exitY=0.25;exitDx=0;exitDy=0;" parent="1" source="f1NjRMOGImZun0HoqA7X-5" target="_Z4wVBYjO5ey0b5FOWfe-21" edge="1">
          <mxGeometry relative="1" as="geometry">
            <mxPoint x="350" y="110" as="sourcePoint" />
            <mxPoint x="510" y="110" as="targetPoint" />
          </mxGeometry>
        </mxCell>
        <mxCell id="4EB04HOkl_Qzjrsy5Wmq-42" value="이름" style="whiteSpace=wrap;html=1;align=center;shape=ellipse;perimeter=ellipsePerimeter;" parent="1" vertex="1">
          <mxGeometry x="780" y="130" width="100" height="40" as="geometry" />
        </mxCell>
        <mxCell id="4EB04HOkl_Qzjrsy5Wmq-43" value="Seq" style="ellipse;whiteSpace=wrap;html=1;align=center;fontStyle=4;" parent="1" vertex="1">
          <mxGeometry x="780" y="90" width="100" height="40" as="geometry" />
        </mxCell>
        <mxCell id="4EB04HOkl_Qzjrsy5Wmq-44" value="대표작" style="whiteSpace=wrap;html=1;align=center;shape=ellipse;perimeter=ellipsePerimeter;" parent="1" vertex="1">
          <mxGeometry x="780" y="170" width="100" height="40" as="geometry" />
        </mxCell>
        <mxCell id="4EB04HOkl_Qzjrsy5Wmq-45" value="" style="endArrow=none;html=1;rounded=0;" parent="1" source="f1NjRMOGImZun0HoqA7X-57" target="4EB04HOkl_Qzjrsy5Wmq-43" edge="1">
          <mxGeometry relative="1" as="geometry">
            <mxPoint x="650" y="160" as="sourcePoint" />
            <mxPoint x="580" y="160" as="targetPoint" />
          </mxGeometry>
        </mxCell>
        <mxCell id="4EB04HOkl_Qzjrsy5Wmq-46" value="" style="endArrow=none;html=1;rounded=0;" parent="1" source="f1NjRMOGImZun0HoqA7X-57" target="4EB04HOkl_Qzjrsy5Wmq-42" edge="1">
          <mxGeometry relative="1" as="geometry">
            <mxPoint x="650" y="160" as="sourcePoint" />
            <mxPoint x="580" y="160" as="targetPoint" />
          </mxGeometry>
        </mxCell>
        <mxCell id="4EB04HOkl_Qzjrsy5Wmq-47" value="" style="endArrow=none;html=1;rounded=0;" parent="1" source="f1NjRMOGImZun0HoqA7X-57" target="4EB04HOkl_Qzjrsy5Wmq-44" edge="1">
          <mxGeometry relative="1" as="geometry">
            <mxPoint x="650" y="160" as="sourcePoint" />
            <mxPoint x="580" y="160" as="targetPoint" />
          </mxGeometry>
        </mxCell>
        <mxCell id="4EB04HOkl_Qzjrsy5Wmq-48" value="배역" style="whiteSpace=wrap;html=1;align=center;shape=ellipse;perimeter=ellipsePerimeter;" parent="1" vertex="1">
          <mxGeometry x="530" y="233" width="100" height="40" as="geometry" />
        </mxCell>
        <mxCell id="4EB04HOkl_Qzjrsy5Wmq-50" value="" style="endArrow=none;html=1;rounded=0;" parent="1" source="4EB04HOkl_Qzjrsy5Wmq-48" target="f1NjRMOGImZun0HoqA7X-17" edge="1">
          <mxGeometry relative="1" as="geometry">
            <mxPoint x="620" y="120" as="sourcePoint" />
            <mxPoint x="483" y="155" as="targetPoint" />
          </mxGeometry>
        </mxCell>
        <mxCell id="4EB04HOkl_Qzjrsy5Wmq-51" value="Seq" style="ellipse;whiteSpace=wrap;html=1;align=center;fontStyle=4;" parent="1" vertex="1">
          <mxGeometry x="414" y="230" width="100" height="40" as="geometry" />
        </mxCell>
        <mxCell id="4EB04HOkl_Qzjrsy5Wmq-52" value="" style="endArrow=none;html=1;rounded=0;" parent="1" source="4EB04HOkl_Qzjrsy5Wmq-51" target="f1NjRMOGImZun0HoqA7X-17" edge="1">
          <mxGeometry relative="1" as="geometry">
            <mxPoint x="620" y="120" as="sourcePoint" />
            <mxPoint x="483" y="155" as="targetPoint" />
          </mxGeometry>
        </mxCell>
        <mxCell id="4EB04HOkl_Qzjrsy5Wmq-53" value="" style="endArrow=none;html=1;rounded=0;entryX=1;entryY=0.5;entryDx=0;entryDy=0;exitX=0;exitY=0.5;exitDx=0;exitDy=0;" parent="1" source="f1NjRMOGImZun0HoqA7X-19" target="PFazSkUr3Jf4t9IVWUDW-16" edge="1">
          <mxGeometry relative="1" as="geometry">
            <mxPoint x="230" y="480" as="sourcePoint" />
            <mxPoint x="270" y="600" as="targetPoint" />
          </mxGeometry>
        </mxCell>
        <mxCell id="4EB04HOkl_Qzjrsy5Wmq-54" value="" style="endArrow=none;html=1;rounded=0;entryX=1;entryY=0.5;entryDx=0;entryDy=0;exitX=0;exitY=0.5;exitDx=0;exitDy=0;" parent="1" source="f1NjRMOGImZun0HoqA7X-19" target="PFazSkUr3Jf4t9IVWUDW-15" edge="1">
          <mxGeometry relative="1" as="geometry">
            <mxPoint x="230" y="480" as="sourcePoint" />
            <mxPoint x="270" y="600" as="targetPoint" />
          </mxGeometry>
        </mxCell>
        <mxCell id="4EB04HOkl_Qzjrsy5Wmq-55" value="" style="endArrow=none;html=1;rounded=0;entryX=1;entryY=0.5;entryDx=0;entryDy=0;exitX=0;exitY=0.5;exitDx=0;exitDy=0;" parent="1" source="f1NjRMOGImZun0HoqA7X-19" target="PFazSkUr3Jf4t9IVWUDW-14" edge="1">
          <mxGeometry relative="1" as="geometry">
            <mxPoint x="230" y="480" as="sourcePoint" />
            <mxPoint x="270" y="600" as="targetPoint" />
          </mxGeometry>
        </mxCell>
        <mxCell id="4EB04HOkl_Qzjrsy5Wmq-56" value="" style="endArrow=none;html=1;rounded=0;entryX=1;entryY=0.5;entryDx=0;entryDy=0;exitX=0;exitY=0.5;exitDx=0;exitDy=0;" parent="1" source="f1NjRMOGImZun0HoqA7X-19" target="PFazSkUr3Jf4t9IVWUDW-13" edge="1">
          <mxGeometry relative="1" as="geometry">
            <mxPoint x="230" y="480" as="sourcePoint" />
            <mxPoint x="270" y="600" as="targetPoint" />
          </mxGeometry>
        </mxCell>
      </root>
    </mxGraphModel>
  </diagram>
</mxfile>
